<mxfile host="app.diagrams.net" modified="2022-06-11T16:40:27.214Z" agent="5.0 (X11; Linux x86_64) AppleWebKit/537.36 (KHTML, like Gecko) Chrome/101.0.0.0 Safari/537.36" etag="1aN3F4wgc9qJhiLdC9qd" version="19.0.3" type="github">
  <diagram id="fiIldqgvTj8RD8d2yoW4" name="segment">
    <mxGraphModel dx="1355" dy="1974" grid="1" gridSize="10" guides="1" tooltips="1" connect="1" arrows="1" fold="1" page="1" pageScale="1" pageWidth="827" pageHeight="1169" math="0" shadow="0">
      <root>
        <mxCell id="0" />
        <mxCell id="1" parent="0" />
        <mxCell id="EcqgWQ-e6KK3-O6DXlR8-1" value="Segment" style="rounded=1;whiteSpace=wrap;html=1;fontSize=14;" vertex="1" parent="1">
          <mxGeometry x="504" y="-1018" width="120" height="60" as="geometry" />
        </mxCell>
        <mxCell id="EcqgWQ-e6KK3-O6DXlR8-3" style="edgeStyle=orthogonalEdgeStyle;rounded=0;orthogonalLoop=1;jettySize=auto;html=1;exitX=0.5;exitY=0;exitDx=0;exitDy=0;fontSize=14;" edge="1" parent="1" source="EcqgWQ-e6KK3-O6DXlR8-4" target="EcqgWQ-e6KK3-O6DXlR8-1">
          <mxGeometry relative="1" as="geometry" />
        </mxCell>
        <mxCell id="EcqgWQ-e6KK3-O6DXlR8-4" value="PosixSegment" style="rounded=1;whiteSpace=wrap;html=1;fontSize=14;" vertex="1" parent="1">
          <mxGeometry x="324" y="-778" width="120" height="60" as="geometry" />
        </mxCell>
        <mxCell id="EcqgWQ-e6KK3-O6DXlR8-5" value="&lt;h1&gt;&lt;font style=&quot;font-size: 16px;&quot;&gt;PosixSegement类说明&lt;/font&gt;&lt;/h1&gt;&lt;div&gt;&lt;font style=&quot;font-size: 14px;&quot;&gt;该类基于Posix共享内存通信实现了内存申请的功能。Posix共享内存能够让无关进程共享一个映射区域而无需创建相应的映射文件。类似于是创建文件，再打开文件，得到文件描述符，利用该文件描述符，通过mmap接口，映射到进程的虚拟地址空间中。&lt;/font&gt;&lt;br&gt;&lt;/div&gt;" style="text;html=1;strokeColor=none;fillColor=none;spacing=5;spacingTop=-20;whiteSpace=wrap;overflow=hidden;rounded=0;fontSize=19;" vertex="1" parent="1">
          <mxGeometry x="454" y="-858" width="336" height="200" as="geometry" />
        </mxCell>
        <mxCell id="EcqgWQ-e6KK3-O6DXlR8-6" value="PosixSegment" style="rounded=1;whiteSpace=wrap;html=1;fontSize=14;" vertex="1" parent="1">
          <mxGeometry x="290" y="-579" width="120" height="60" as="geometry" />
        </mxCell>
        <mxCell id="EcqgWQ-e6KK3-O6DXlR8-7" value="" style="endArrow=classic;html=1;rounded=0;fontSize=14;exitX=0;exitY=1;exitDx=0;exitDy=0;" edge="1" parent="1" source="EcqgWQ-e6KK3-O6DXlR8-6">
          <mxGeometry width="50" height="50" relative="1" as="geometry">
            <mxPoint x="170" y="-489" as="sourcePoint" />
            <mxPoint x="60" y="-369" as="targetPoint" />
          </mxGeometry>
        </mxCell>
        <mxCell id="EcqgWQ-e6KK3-O6DXlR8-8" value="&lt;h1 style=&quot;font-size: 19px;&quot;&gt;managed_shm_&lt;/h1&gt;&lt;div style=&quot;color: rgb(212, 212, 212); background-color: rgb(30, 30, 30); font-family: &amp;quot;Operator Mono&amp;quot;, &amp;quot;Dank Mono&amp;quot;, &amp;quot;Fira Code Light&amp;quot;, &amp;quot;Droid Sans Mono&amp;quot;, &amp;quot;monospace&amp;quot;, monospace; font-size: 14px; line-height: 19px;&quot;&gt;&lt;div&gt;&lt;span style=&quot;color: #9cdcfe;&quot;&gt;managed_shm_&lt;/span&gt; = &lt;span style=&quot;color: #dcdcaa;&quot;&gt;mmap&lt;/span&gt;(&lt;span style=&quot;color: #569cd6;&quot;&gt;nullptr&lt;/span&gt;, &lt;span style=&quot;color: #9cdcfe;&quot;&gt;conf_&lt;/span&gt;.&lt;span style=&quot;color: #dcdcaa;&quot;&gt;managed_shm_size&lt;/span&gt;(), &lt;span style=&quot;color: #569cd6;&quot;&gt;PROT_READ&lt;/span&gt; | &lt;span style=&quot;color: #569cd6;&quot;&gt;PROT_WRITE&lt;/span&gt;,&lt;/div&gt;&lt;div&gt;                      &lt;span style=&quot;color: #569cd6;&quot;&gt;MAP_SHARED&lt;/span&gt;, &lt;span style=&quot;color: #9cdcfe;&quot;&gt;fd&lt;/span&gt;, &lt;span style=&quot;color: #b5cea8;&quot;&gt;0&lt;/span&gt;);&lt;/div&gt;&lt;div&gt;//调用mmap后，返回映射到内存中区域的首地址，注意fd特别重要，通过这个文件来申请内存。&lt;/div&gt;&lt;/div&gt;" style="text;html=1;strokeColor=none;fillColor=none;spacing=5;spacingTop=-20;whiteSpace=wrap;overflow=hidden;rounded=0;fontSize=19;" vertex="1" parent="1">
          <mxGeometry x="20" y="-369" width="390" height="136" as="geometry" />
        </mxCell>
        <mxCell id="EcqgWQ-e6KK3-O6DXlR8-9" value="ShmConf" style="rounded=1;whiteSpace=wrap;html=1;" vertex="1" parent="1">
          <mxGeometry x="270" y="240" width="120" height="60" as="geometry" />
        </mxCell>
        <mxCell id="EcqgWQ-e6KK3-O6DXlR8-10" value="&lt;h1 style=&quot;font-size: 18px;&quot;&gt;ShmConf&lt;/h1&gt;&lt;p style=&quot;&quot;&gt;&lt;font style=&quot;font-size: 14px;&quot;&gt;该类描述了通过posix共享内存所申请到的内存，如何进行配置，该类定义了很多常量，用于配置不同大小的共享内存。有定义如下四个成员：&lt;/font&gt;&lt;/p&gt;&lt;p style=&quot;&quot;&gt;&lt;font style=&quot;font-size: 14px;&quot;&gt;&lt;/font&gt;&lt;/p&gt;&lt;div style=&quot;color: rgb(212, 212, 212); background-color: rgb(30, 30, 30); font-family: &amp;quot;Operator Mono&amp;quot;, &amp;quot;Dank Mono&amp;quot;, &amp;quot;Fira Code Light&amp;quot;, &amp;quot;Droid Sans Mono&amp;quot;, &amp;quot;monospace&amp;quot;, monospace; font-size: 14px; line-height: 19px;&quot;&gt;&lt;div&gt;  &lt;span style=&quot;color: #4ec9b0;&quot;&gt;uint64_t&lt;/span&gt; &lt;span style=&quot;color: #9cdcfe;&quot;&gt;ceiling_msg_size_&lt;/span&gt;;&lt;/div&gt;&lt;div&gt;  &lt;span style=&quot;color: #4ec9b0;&quot;&gt;uint64_t&lt;/span&gt; &lt;span style=&quot;color: #9cdcfe;&quot;&gt;block_buf_size_&lt;/span&gt;;&lt;/div&gt;&lt;div&gt;  &lt;span style=&quot;color: #4ec9b0;&quot;&gt;uint32_t&lt;/span&gt; &lt;span style=&quot;color: #9cdcfe;&quot;&gt;block_num_&lt;/span&gt;;&lt;/div&gt;&lt;div&gt;  &lt;span style=&quot;color: #4ec9b0;&quot;&gt;uint64_t&lt;/span&gt; &lt;span style=&quot;color: #9cdcfe;&quot;&gt;managed_shm_size_&lt;/span&gt;;&lt;/div&gt;&lt;/div&gt;" style="text;html=1;strokeColor=none;fillColor=none;spacing=5;spacingTop=-20;whiteSpace=wrap;overflow=hidden;rounded=0;fontSize=18;" vertex="1" parent="1">
          <mxGeometry x="450" y="210" width="350" height="210" as="geometry" />
        </mxCell>
        <mxCell id="EcqgWQ-e6KK3-O6DXlR8-12" value="&lt;h1 style=&quot;font-size: 19px;&quot;&gt;managed_shm_size_&lt;/h1&gt;&lt;p style=&quot;&quot;&gt;&lt;span style=&quot;font-size: 14px;&quot;&gt;描述了最大的所需共享内存，在打开了文件后，会调用ftruncate截断文件，截断大小即managed_shm_size_。&lt;/span&gt;&lt;/p&gt;" style="text;html=1;strokeColor=none;fillColor=none;spacing=5;spacingTop=-20;whiteSpace=wrap;overflow=hidden;rounded=0;labelBackgroundColor=#FFFFFF;fontSize=19;fontColor=#000033;" vertex="1" parent="1">
          <mxGeometry x="20" y="440" width="270" height="116" as="geometry" />
        </mxCell>
        <mxCell id="EcqgWQ-e6KK3-O6DXlR8-15" value="" style="endArrow=classic;html=1;rounded=0;fontSize=14;fontColor=#000033;exitX=0.25;exitY=1;exitDx=0;exitDy=0;entryX=0.5;entryY=0;entryDx=0;entryDy=0;" edge="1" parent="1" source="EcqgWQ-e6KK3-O6DXlR8-9" target="EcqgWQ-e6KK3-O6DXlR8-12">
          <mxGeometry width="50" height="50" relative="1" as="geometry">
            <mxPoint x="240" y="444" as="sourcePoint" />
            <mxPoint x="130" y="494" as="targetPoint" />
          </mxGeometry>
        </mxCell>
        <mxCell id="EcqgWQ-e6KK3-O6DXlR8-16" value="&lt;h1 style=&quot;font-size: 19px;&quot;&gt;ceiling_shm_size_&lt;/h1&gt;&lt;p style=&quot;&quot;&gt;&lt;span style=&quot;font-size: 14px;&quot;&gt;描述单个ceil块的大小，&lt;/span&gt;&lt;/p&gt;" style="text;html=1;strokeColor=none;fillColor=none;spacing=5;spacingTop=-20;whiteSpace=wrap;overflow=hidden;rounded=0;labelBackgroundColor=#FFFFFF;fontSize=19;fontColor=#000033;" vertex="1" parent="1">
          <mxGeometry x="210" y="610" width="270" height="70" as="geometry" />
        </mxCell>
        <mxCell id="EcqgWQ-e6KK3-O6DXlR8-17" value="" style="endArrow=classic;html=1;rounded=0;fontSize=14;fontColor=#000033;exitX=0.433;exitY=1.067;exitDx=0;exitDy=0;exitPerimeter=0;" edge="1" parent="1" source="EcqgWQ-e6KK3-O6DXlR8-9">
          <mxGeometry width="50" height="50" relative="1" as="geometry">
            <mxPoint x="375" y="530" as="sourcePoint" />
            <mxPoint x="325" y="610" as="targetPoint" />
          </mxGeometry>
        </mxCell>
        <mxCell id="EcqgWQ-e6KK3-O6DXlR8-18" value="&lt;h1 style=&quot;font-size: 19px;&quot;&gt;block_buf_size_及block_num_&lt;/h1&gt;&lt;p style=&quot;&quot;&gt;&lt;span style=&quot;font-size: 14px;&quot;&gt;描述单个block的大小，它相比ceiling_shm_size，多了一个MESSAGE_INFO_SIZE&lt;/span&gt;&lt;/p&gt;&lt;p style=&quot;&quot;&gt;&lt;span style=&quot;font-size: 14px;&quot;&gt;block_num_描述了有多少个block&lt;/span&gt;&lt;/p&gt;" style="text;html=1;strokeColor=none;fillColor=none;spacing=5;spacingTop=-20;whiteSpace=wrap;overflow=hidden;rounded=0;labelBackgroundColor=#FFFFFF;fontSize=19;fontColor=#000033;" vertex="1" parent="1">
          <mxGeometry x="400" y="531" width="390" height="139" as="geometry" />
        </mxCell>
        <mxCell id="EcqgWQ-e6KK3-O6DXlR8-19" value="" style="endArrow=classic;html=1;rounded=0;fontSize=14;fontColor=#000033;entryX=0.5;entryY=0;entryDx=0;entryDy=0;" edge="1" parent="1" target="EcqgWQ-e6KK3-O6DXlR8-18">
          <mxGeometry width="50" height="50" relative="1" as="geometry">
            <mxPoint x="320" y="300" as="sourcePoint" />
            <mxPoint x="380" y="380" as="targetPoint" />
          </mxGeometry>
        </mxCell>
        <mxCell id="EcqgWQ-e6KK3-O6DXlR8-55" value="" style="rounded=0;whiteSpace=wrap;html=1;labelBackgroundColor=#FFFFFF;fontSize=14;fontColor=#000033;" vertex="1" parent="1">
          <mxGeometry x="83" y="-182" width="620" height="60" as="geometry" />
        </mxCell>
        <mxCell id="EcqgWQ-e6KK3-O6DXlR8-56" value="" style="endArrow=none;html=1;rounded=0;fontSize=14;fontColor=#000033;" edge="1" parent="1">
          <mxGeometry width="50" height="50" relative="1" as="geometry">
            <mxPoint x="131" y="-180" as="sourcePoint" />
            <mxPoint x="131" y="-125" as="targetPoint" />
          </mxGeometry>
        </mxCell>
        <mxCell id="EcqgWQ-e6KK3-O6DXlR8-57" value="State" style="text;html=1;strokeColor=none;fillColor=none;align=center;verticalAlign=middle;whiteSpace=wrap;rounded=0;labelBackgroundColor=#FFFFFF;fontSize=14;fontColor=#000033;" vertex="1" parent="1">
          <mxGeometry x="88" y="-167" width="40" height="30" as="geometry" />
        </mxCell>
        <mxCell id="EcqgWQ-e6KK3-O6DXlR8-58" value="" style="endArrow=none;html=1;rounded=0;fontSize=14;fontColor=#000033;" edge="1" parent="1">
          <mxGeometry width="50" height="50" relative="1" as="geometry">
            <mxPoint x="184" y="-181" as="sourcePoint" />
            <mxPoint x="184" y="-126" as="targetPoint" />
          </mxGeometry>
        </mxCell>
        <mxCell id="EcqgWQ-e6KK3-O6DXlR8-59" value="Block1" style="text;html=1;strokeColor=none;fillColor=none;align=center;verticalAlign=middle;whiteSpace=wrap;rounded=0;labelBackgroundColor=#FFFFFF;fontSize=14;fontColor=#000033;" vertex="1" parent="1">
          <mxGeometry x="136" y="-165" width="40" height="30" as="geometry" />
        </mxCell>
        <mxCell id="EcqgWQ-e6KK3-O6DXlR8-60" value="Block2" style="text;html=1;strokeColor=none;fillColor=none;align=center;verticalAlign=middle;whiteSpace=wrap;rounded=0;labelBackgroundColor=#FFFFFF;fontSize=14;fontColor=#000033;" vertex="1" parent="1">
          <mxGeometry x="190" y="-165" width="40" height="30" as="geometry" />
        </mxCell>
        <mxCell id="EcqgWQ-e6KK3-O6DXlR8-61" value="" style="endArrow=none;html=1;rounded=0;fontSize=14;fontColor=#000033;" edge="1" parent="1">
          <mxGeometry width="50" height="50" relative="1" as="geometry">
            <mxPoint x="238" y="-181" as="sourcePoint" />
            <mxPoint x="238" y="-126" as="targetPoint" />
          </mxGeometry>
        </mxCell>
        <mxCell id="EcqgWQ-e6KK3-O6DXlR8-62" value="" style="endArrow=none;dashed=1;html=1;dashPattern=1 3;strokeWidth=2;rounded=0;fontSize=14;fontColor=#000033;" edge="1" parent="1">
          <mxGeometry width="50" height="50" relative="1" as="geometry">
            <mxPoint x="243" y="-149.5" as="sourcePoint" />
            <mxPoint x="313" y="-149.5" as="targetPoint" />
          </mxGeometry>
        </mxCell>
        <mxCell id="EcqgWQ-e6KK3-O6DXlR8-63" value="BlockN" style="text;html=1;strokeColor=none;fillColor=none;align=center;verticalAlign=middle;whiteSpace=wrap;rounded=0;labelBackgroundColor=#FFFFFF;fontSize=14;fontColor=#000033;" vertex="1" parent="1">
          <mxGeometry x="325" y="-164" width="40" height="30" as="geometry" />
        </mxCell>
        <mxCell id="EcqgWQ-e6KK3-O6DXlR8-64" value="" style="endArrow=none;html=1;rounded=0;fontSize=14;fontColor=#000033;" edge="1" parent="1">
          <mxGeometry width="50" height="50" relative="1" as="geometry">
            <mxPoint x="321" y="-180" as="sourcePoint" />
            <mxPoint x="321" y="-125" as="targetPoint" />
          </mxGeometry>
        </mxCell>
        <mxCell id="EcqgWQ-e6KK3-O6DXlR8-65" value="" style="endArrow=none;html=1;rounded=0;fontSize=14;fontColor=#000033;" edge="1" parent="1">
          <mxGeometry width="50" height="50" relative="1" as="geometry">
            <mxPoint x="370" y="-179" as="sourcePoint" />
            <mxPoint x="370" y="-124" as="targetPoint" />
          </mxGeometry>
        </mxCell>
        <mxCell id="EcqgWQ-e6KK3-O6DXlR8-66" value="BlockBuf1" style="text;html=1;strokeColor=none;fillColor=none;align=center;verticalAlign=middle;whiteSpace=wrap;rounded=0;labelBackgroundColor=#FFFFFF;fontSize=14;fontColor=#000033;" vertex="1" parent="1">
          <mxGeometry x="396" y="-165" width="40" height="30" as="geometry" />
        </mxCell>
        <mxCell id="EcqgWQ-e6KK3-O6DXlR8-67" value="" style="endArrow=none;html=1;rounded=0;fontSize=14;fontColor=#000033;" edge="1" parent="1">
          <mxGeometry width="50" height="50" relative="1" as="geometry">
            <mxPoint x="461" y="-179" as="sourcePoint" />
            <mxPoint x="461" y="-124" as="targetPoint" />
          </mxGeometry>
        </mxCell>
        <mxCell id="EcqgWQ-e6KK3-O6DXlR8-68" value="BlockBuf2" style="text;html=1;strokeColor=none;fillColor=none;align=center;verticalAlign=middle;whiteSpace=wrap;rounded=0;labelBackgroundColor=#FFFFFF;fontSize=14;fontColor=#000033;" vertex="1" parent="1">
          <mxGeometry x="487" y="-165" width="40" height="30" as="geometry" />
        </mxCell>
        <mxCell id="EcqgWQ-e6KK3-O6DXlR8-69" value="" style="endArrow=none;html=1;rounded=0;fontSize=14;fontColor=#000033;" edge="1" parent="1">
          <mxGeometry width="50" height="50" relative="1" as="geometry">
            <mxPoint x="546" y="-180" as="sourcePoint" />
            <mxPoint x="546" y="-125" as="targetPoint" />
          </mxGeometry>
        </mxCell>
        <mxCell id="EcqgWQ-e6KK3-O6DXlR8-70" value="" style="endArrow=none;dashed=1;html=1;dashPattern=1 3;strokeWidth=2;rounded=0;fontSize=14;fontColor=#000033;" edge="1" parent="1">
          <mxGeometry width="50" height="50" relative="1" as="geometry">
            <mxPoint x="557" y="-149.5" as="sourcePoint" />
            <mxPoint x="627" y="-149.5" as="targetPoint" />
          </mxGeometry>
        </mxCell>
        <mxCell id="EcqgWQ-e6KK3-O6DXlR8-71" value="BlockBufN" style="text;html=1;strokeColor=none;fillColor=none;align=center;verticalAlign=middle;whiteSpace=wrap;rounded=0;labelBackgroundColor=#FFFFFF;fontSize=14;fontColor=#000033;" vertex="1" parent="1">
          <mxGeometry x="643" y="-167" width="40" height="30" as="geometry" />
        </mxCell>
        <mxCell id="EcqgWQ-e6KK3-O6DXlR8-72" value="" style="endArrow=none;html=1;rounded=0;fontSize=14;fontColor=#000033;" edge="1" parent="1">
          <mxGeometry width="50" height="50" relative="1" as="geometry">
            <mxPoint x="622" y="-180" as="sourcePoint" />
            <mxPoint x="622" y="-125" as="targetPoint" />
          </mxGeometry>
        </mxCell>
        <mxCell id="EcqgWQ-e6KK3-O6DXlR8-73" value="managed_shm_共享内存布局" style="text;html=1;strokeColor=none;fillColor=none;align=center;verticalAlign=middle;whiteSpace=wrap;rounded=0;labelBackgroundColor=#FFFFFF;fontSize=14;fontColor=#000033;" vertex="1" parent="1">
          <mxGeometry x="264" y="-111" width="260" height="30" as="geometry" />
        </mxCell>
        <mxCell id="EcqgWQ-e6KK3-O6DXlR8-74" value="通过mmap将文件映射到进程空间后，从内存中获取了一块内存，该块内存的大小就是ShmConf配置的内存大小，即managed_shm_size_的大小。mmap的返回值就是这块内存的首地址。拿到这个首地址后，就对这块内存利用placement new进行了部分内存初始化。（注意对已分配内存进行初始化操作，使用placement new）。&lt;br&gt;分别进行了如下初始化：&lt;br&gt;1.初始化了一个state对象，该对象用于管理当前被使用到的内存块的索引;&lt;br&gt;2.依据blockNum的大小，初始化了blockNum个Block对象，每个Block对象类似于是一个锁，可用于对应BlockBuf的读写操作，确保线程安全;&lt;br&gt;3.依据blockNum的大小，初始化了blockNum块内存，每块内存的大小为block_buf_size，每块内存的序号值和该块内存对应的首地址，一起存储在了segment的block_buf_addrs_里。&amp;nbsp;" style="text;html=1;strokeColor=none;fillColor=none;align=left;verticalAlign=top;whiteSpace=wrap;rounded=0;labelBackgroundColor=#FFFFFF;fontSize=14;fontColor=#000033;" vertex="1" parent="1">
          <mxGeometry x="83" y="-76" width="621" height="170" as="geometry" />
        </mxCell>
        <mxCell id="EcqgWQ-e6KK3-O6DXlR8-78" value="&lt;h1&gt;&lt;font style=&quot;font-size: 16px;&quot;&gt;Segement类说明&lt;/font&gt;&lt;/h1&gt;&lt;div&gt;&lt;font style=&quot;font-size: 14px;&quot;&gt;该类是一个抽象类，定义了进程交互时，内存管理功能，包括读写时，从原始内存区，获取所需内存的接口及读写完毕时，释放内存接口。基于不同的进程交互方式时，会有不同的原始内存申请方式，申请后的内存，会统一放在blocks_里。&lt;/font&gt;&lt;/div&gt;&lt;div&gt;&lt;span style=&quot;font-size: 16px;&quot;&gt;&lt;br&gt;&lt;/span&gt;&lt;/div&gt;" style="text;html=1;strokeColor=none;fillColor=none;spacing=5;spacingTop=-20;whiteSpace=wrap;overflow=hidden;rounded=0;fontSize=19;" vertex="1" parent="1">
          <mxGeometry x="46" y="-1090" width="336" height="226" as="geometry" />
        </mxCell>
        <mxCell id="EcqgWQ-e6KK3-O6DXlR8-79" value="" style="strokeWidth=2;html=1;shape=mxgraph.flowchart.annotation_2;align=left;labelPosition=right;pointerEvents=1;labelBackgroundColor=#FFFFFF;fontSize=14;fontColor=#000033;" vertex="1" parent="1">
          <mxGeometry x="624" y="-1080" width="165" height="156.5" as="geometry" />
        </mxCell>
        <mxCell id="EcqgWQ-e6KK3-O6DXlR8-80" value="方法分析" style="text;html=1;strokeColor=none;fillColor=none;align=center;verticalAlign=middle;whiteSpace=wrap;rounded=0;labelBackgroundColor=#FFFFFF;fontSize=14;fontColor=#000033;" vertex="1" parent="1">
          <mxGeometry x="632" y="-1019" width="60" height="30" as="geometry" />
        </mxCell>
        <mxCell id="EcqgWQ-e6KK3-O6DXlR8-81" value="&lt;h1&gt;&lt;div style=&quot;font-family: &amp;quot;Operator Mono&amp;quot;, &amp;quot;Dank Mono&amp;quot;, &amp;quot;Fira Code Light&amp;quot;, &amp;quot;Droid Sans Mono&amp;quot;, &amp;quot;monospace&amp;quot;, monospace; line-height: 19px;&quot;&gt;&lt;font style=&quot;font-size: 16px;&quot;&gt;AcquireBlockToWrite&lt;/font&gt;&lt;/div&gt;&lt;/h1&gt;&lt;p&gt;该方法用于从BlockBuf集合中找到空闲Buf，用于上层调用进行数据写操作，同时会返回该BlockBuf所对应的Block对象，用于上层调用进行数据写操作时的锁操作。&lt;/p&gt;&lt;p&gt;注意当需要被写的数据的内存大小大于单个块的大小，会报错，提示数据过大&lt;/p&gt;" style="text;html=1;strokeColor=none;fillColor=none;spacing=5;spacingTop=-20;whiteSpace=wrap;overflow=hidden;rounded=0;labelBackgroundColor=#FFFFFF;fontSize=14;fontColor=#000033;" vertex="1" parent="1">
          <mxGeometry x="789" y="-1159" width="449" height="159" as="geometry" />
        </mxCell>
      </root>
    </mxGraphModel>
  </diagram>
</mxfile>
